# Blender v2.80 (sub 74) OBJ File: ''
# www.blender.org
mtllib bandiera.mtl
o Cylinder_Cylinder.001
v 1.207001 1.801591 -0.028782
v -0.231796 1.742424 -0.093652
v -0.093652 2.045455 0.231796
v 0.097683 0.227273 0.230126
v -0.231796 0.681818 -0.093652
v -0.231796 2.045455 -0.093652
v 0.097683 1.590909 0.230126
v -0.230126 1.590909 0.097683
v -0.231796 1.893939 -0.093652
v -0.231796 1.590909 -0.093652
v -0.093652 1.590909 0.231796
v -0.072582 2.628257 0.030809
v 0.097683 2.045455 0.230126
v -0.097683 1.742424 -0.230126
v 0.097683 0.681818 0.230126
v -0.097683 2.045455 -0.230126
v -0.230126 1.742424 0.097683
v -0.093652 0.227273 0.231796
v 0.097683 1.893939 0.230126
v -0.097683 1.893939 -0.230126
v -0.230126 2.045455 0.097683
v 0.097683 1.742424 0.230126
v -0.230126 1.893939 0.097683
v -0.030809 2.628257 -0.072582
v -0.073108 2.628257 -0.029538
v -0.029538 2.628257 0.073108
v 0.030809 2.628257 0.072582
v 0.073108 2.628257 0.029538
v 0.029538 2.628257 -0.073108
v 0.072582 2.628257 -0.030809
v -0.093652 1.742424 0.231796
v -0.093652 1.893939 0.231796
v -0.230126 1.136364 0.097683
v 1.207001 1.834773 -0.028782
v 1.206635 1.801591 -0.070684
v 1.206635 1.834773 -0.070684
v 0.093652 1.893939 -0.231796
v 0.093652 1.742424 -0.231796
v -0.097683 -2.045455 -0.230126
v 0.231796 -0.227273 0.093652
v 0.231796 -0.681818 0.093652
v 0.231796 -1.136364 0.093652
v 0.231796 -1.590909 0.093652
v 0.231796 -2.045455 0.093652
v 0.097683 1.136364 0.230126
v -0.231796 0.227273 -0.093652
v 0.097683 -0.227273 0.230126
v 0.097683 -0.681818 0.230126
v 0.097683 -1.136364 0.230126
v 0.097683 -1.590909 0.230126
v 0.097683 -2.045455 0.230126
v -0.230126 0.227273 0.097683
v -0.093652 1.136364 0.231796
v -0.093652 0.681818 0.231796
v -0.093652 -0.227273 0.231796
v -0.093652 -0.681818 0.231796
v -0.093652 -1.136364 0.231796
v -0.093652 -1.590909 0.231796
v -0.093652 -2.045455 0.231796
v -0.230126 0.681818 0.097683
v 0.231796 0.681818 0.093652
v -0.230126 -0.227273 0.097683
v -0.230126 -0.681818 0.097683
v -0.230126 -1.136364 0.097683
v -0.230126 -1.590909 0.097683
v -0.230126 -2.045455 0.097683
v -0.231796 1.136364 -0.093652
v 0.231796 0.227273 0.093652
v -0.231796 -0.227273 -0.093652
v -0.231796 -0.681818 -0.093652
v -0.231796 -1.136364 -0.093652
v -0.231796 -1.590909 -0.093652
v -0.231796 -2.045455 -0.093652
v -0.097683 1.590909 -0.230126
v -0.097683 1.136364 -0.230126
v -0.097683 0.681818 -0.230126
v -0.097683 0.227273 -0.230126
v -0.097683 -0.227273 -0.230126
v -0.097683 -0.681818 -0.230126
v -0.097683 -1.136364 -0.230126
v -0.097683 -1.590909 -0.230126
v 0.231796 1.136364 0.093652
v 0.789534 1.590909 0.045934
v 0.789534 2.045455 0.045934
v 0.230126 -2.045455 -0.097683
v 0.230126 -1.590909 -0.097683
v 0.230126 -1.136364 -0.097683
v 0.230126 -0.681818 -0.097683
v 0.230126 -0.227273 -0.097683
v 0.230126 0.227273 -0.097683
v 0.230126 0.681818 -0.097683
v 0.230126 1.136364 -0.097683
v 0.787865 1.590909 -0.145400
v 0.787865 2.045455 -0.145400
v 0.093652 2.045455 -0.231796
v 0.093652 1.590909 -0.231796
v 0.093652 1.136364 -0.231796
v 0.093652 0.681818 -0.231796
v 0.093652 0.227273 -0.231796
v 0.093652 -0.227273 -0.231796
v 0.093652 -0.681818 -0.231796
v 0.093652 -1.136364 -0.231796
v 0.093652 -1.590909 -0.231796
v 0.093652 -2.045455 -0.231796
v -0.097683 2.500000 -0.230126
v -0.097683 -2.500000 -0.230126
v -0.231796 2.500000 -0.093652
v -0.231796 -2.500000 -0.093652
v -0.230126 2.500000 0.097683
v -0.230126 -2.500000 0.097683
v -0.093652 2.500000 0.231796
v -0.093652 -2.500000 0.231796
v 0.097683 2.500000 0.230126
v 0.097683 -2.500000 0.230126
v 0.231796 2.500000 0.093652
v 0.231796 -2.500000 0.093652
v 0.230126 2.500000 -0.097683
v 0.230126 -2.500000 -0.097683
v 0.093652 2.500000 -0.231796
v 0.093652 -2.500000 -0.231796
vt 0.000000 0.000000
vt 0.000000 0.000000
vt 0.000000 0.000000
vt 0.000000 0.000000
vt 0.000000 0.000000
vt 0.000000 0.000000
vt 0.000000 0.000000
vt 0.000000 0.000000
vt 0.000000 0.000000
vt 0.000000 0.000000
vt 0.000000 0.000000
vt 0.000000 0.000000
vt 0.000000 0.000000
vt 0.000000 0.000000
vt 0.000000 0.000000
vt 0.000000 0.000000
vt 0.000000 0.000000
vt 0.000000 0.000000
vt 0.000000 0.000000
vt 0.000000 0.000000
vt 0.000000 0.000000
vt 0.000000 0.000000
vt 0.000000 0.000000
vt 0.000000 0.000000
vt 0.000000 0.000000
vt 0.000000 0.000000
vt 0.000000 0.000000
vt 0.000000 0.000000
vt 0.000000 0.000000
vt 0.000000 0.000000
vt 0.000000 0.000000
vt 0.000000 0.000000
vt 0.000000 0.000000
vt 0.000000 0.000000
vt 0.000000 0.000000
vt 0.000000 0.000000
vt 0.000000 0.000000
vt 0.000000 0.000000
vt 0.000000 0.000000
vt 0.000000 0.000000
vt 0.000000 0.000000
vt 0.000000 0.000000
vt 0.000000 0.000000
vt 0.000000 0.000000
vt 0.000000 0.000000
vt 0.000000 0.000000
vt 0.000000 0.000000
vt 0.000000 0.000000
vt 0.000000 0.000000
vt 0.000000 0.000000
vt 0.000000 0.000000
vt 0.000000 0.000000
vt 0.000000 0.000000
vt 0.000000 0.000000
vt 0.000000 0.000000
vt 0.000000 0.000000
vt 0.000000 0.000000
vt 0.000000 0.000000
vt 0.000000 0.000000
vt 0.000000 0.000000
vt 0.000000 0.000000
vt 0.000000 0.000000
vt 0.000000 0.000000
vt 0.000000 0.000000
vt 0.000000 0.000000
vt 0.000000 0.000000
vt 0.000000 0.000000
vt 0.000000 0.000000
vt 0.000000 0.000000
vt 0.000000 0.000000
vt 1.000000 1.000000
vt 1.000000 1.000000
vt 0.875000 1.000000
vt 1.000000 0.818182
vt 0.875000 0.818182
vt 0.875000 0.772727
vt 1.000000 0.772727
vt 0.875000 0.727273
vt 1.000000 0.727273
vt 0.875000 0.681818
vt 1.000000 0.636364
vt 1.000000 0.681818
vt 0.875000 0.636364
vt 0.875000 0.590909
vt 1.000000 0.590909
vt 0.875000 0.545455
vt 1.000000 0.545455
vt 0.875000 0.500000
vt 0.750000 0.727273
vt 0.750000 0.681818
vt 0.750000 0.636364
vt 0.750000 0.590909
vt 0.750000 0.545455
vt 0.750000 0.500000
vt 0.625000 0.636364
vt 0.625000 0.590909
vt 0.625000 0.545455
vt 0.625000 0.500000
vt 0.500000 0.636364
vt 0.500000 0.590909
vt 0.500000 0.545455
vt 0.500000 0.500000
vt 0.000000 0.000000
vt 0.000000 0.000000
vt 0.000000 0.000000
vt 0.000000 0.000000
vt 0.000000 0.000000
vt 0.000000 0.000000
vt 0.000000 0.000000
vt 0.375000 0.545455
vt 0.250000 0.545455
vt 0.250000 0.500000
vt 0.375000 0.590909
vt 0.250000 0.590909
vt 0.375000 0.636364
vt 0.250000 0.636364
vt 0.375000 0.681818
vt 0.250000 0.681818
vt 0.375000 0.727273
vt 0.250000 0.727273
vt 0.000000 0.000000
vt 0.000000 0.000000
vt 0.375000 0.500000
vt 0.000000 0.000000
vt 0.125000 0.636364
vt 0.125000 0.590909
vt 0.125000 0.681818
vt 0.125000 0.727273
vt 0.000000 0.000000
vt 0.000000 0.000000
vt 0.125000 0.545455
vt 0.000000 0.000000
vt 0.125000 0.909091
vt 0.000000 0.909091
vt 0.000000 0.863636
vt 0.125000 0.500000
vt 0.000000 0.545455
vt 0.000000 0.500000
vt 0.580294 0.419706
vt 0.919706 0.419706
vt 0.919706 0.080294
vt 0.580294 0.080294
vt 0.510000 0.250000
vt 0.750000 0.010000
vt 0.990000 0.250000
vt 0.750000 0.490000
vt 0.125000 0.863636
vt 0.000000 0.818182
vt 0.125000 0.818182
vt 0.000000 0.772727
vt 0.000000 0.000000
vt 0.125000 0.772727
vt 0.000000 0.727273
vt 0.000000 0.681818
vt 0.000000 0.636364
vt 0.000000 0.590909
vt 1.000000 0.500000
vt 0.500000 0.681818
vt 0.000000 1.000000
vt 0.125000 1.000000
vt 0.000000 1.000000
vn 0.6315 -0.7754 -0.0055
vn 0.4500 0.8930 -0.0039
vn 0.7009 0.0000 -0.7133
vn 0.1196 -0.2477 -0.9614
vn 0.1433 0.0000 -0.9897
vn 0.4500 -0.8930 -0.0039
vn 1.0000 0.0000 -0.0087
vn 0.7133 0.0000 0.7009
vn 0.2273 0.0000 0.9738
vn 0.2316 -0.1165 0.9658
vn -0.7009 0.0000 0.7133
vn 0.0087 0.0000 1.0000
vn -0.0087 0.0000 -1.0000
vn 0.4493 0.7766 0.4415
vn 0.0000 1.0000 0.0000
vn -0.4493 0.7766 -0.4415
vn -0.7132 0.0000 -0.7009
vn 0.2516 -0.2095 0.9449
vn 0.6299 0.7766 -0.0055
vn 0.0055 0.7766 0.6299
vn -1.0000 0.0000 0.0087
vn -0.4415 0.7766 0.4493
vn -0.7133 0.0000 -0.7009
vn 0.1235 0.0000 -0.9923
vn -0.0055 0.7766 -0.6299
vn -0.7009 0.0000 0.7132
vn 0.1390 0.0739 -0.9875
vn 0.2573 0.0000 0.9663
vn 0.4415 0.7766 -0.4493
vn 0.0000 -1.0000 0.0000
vn -0.6299 0.7766 0.0055
vn 0.1390 -0.0739 -0.9875
vn 0.2316 0.1165 0.9658
vn 0.6315 0.7754 -0.0055
vn 0.2516 0.2095 0.9449
vn 0.1196 0.2477 -0.9614
usemtl None
s off
f 92/1/1 93/2/1 83/3/1
f 36/4/2 94/5/2 84/6/2
f 98/7/3 97/8/3 92/1/3
f 96/9/4 93/2/4 92/1/4
f 37/10/5 36/4/5 35/11/5
f 35/11/6 1/12/6 83/3/6
f 36/4/7 34/13/7 1/12/7
f 41/14/8 48/15/8 49/16/8
f 34/13/9 19/17/9 22/18/9
f 83/3/10 1/12/10 22/18/10
f 40/19/8 47/20/8 48/15/8
f 54/21/11 60/22/11 52/23/11
f 11/24/11 8/25/11 33/26/11
f 45/27/12 53/28/12 54/21/12
f 20/29/13 37/10/13 38/30/13
f 32/31/11 23/32/11 17/33/11
f 113/34/14 115/35/14 28/36/14
f 28/36/15 29/37/15 25/38/15
f 91/39/7 61/40/7 68/41/7
f 26/42/15 27/43/15 28/36/15
f 68/41/8 4/44/8 47/20/8
f 105/45/16 107/46/16 25/38/16
f 9/47/17 20/29/17 14/48/17
f 29/37/15 24/49/15 25/38/15
f 82/50/18 83/3/18 7/51/18
f 117/52/19 30/53/19 28/36/19
f 113/34/20 27/43/20 26/42/20
f 17/33/21 2/54/21 10/55/21
f 111/56/22 26/42/22 12/57/22
f 31/58/11 17/33/11 8/25/11
f 47/20/12 55/59/12 56/60/12
f 28/36/15 30/53/15 29/37/15
f 14/48/13 38/30/13 96/9/13
f 25/38/15 12/57/15 26/42/15
f 53/28/11 33/26/11 60/22/11
f 19/17/12 32/31/12 31/58/12
f 2/54/23 14/48/23 74/61/23
f 22/18/12 31/58/12 11/24/12
f 4/44/12 18/62/12 55/59/12
f 92/1/7 82/50/7 61/40/7
f 37/10/24 95/63/24 94/5/24
f 23/32/21 9/47/21 2/54/21
f 13/64/12 3/65/12 32/31/12
f 119/66/25 105/45/25 24/49/25
f 48/15/12 56/60/12 57/67/12
f 7/51/12 11/24/12 53/28/12
f 3/65/26 21/68/26 23/32/26
f 38/30/27 35/11/27 93/2/27
f 84/6/28 13/64/28 19/17/28
f 18/62/11 52/23/11 62/69/11
f 82/50/8 45/27/8 15/70/8
f 61/40/8 15/70/8 4/44/8
f 15/70/12 54/21/12 18/62/12
f 119/71/29 29/72/29 30/73/29
f 98/74/3 91/75/3 90/76/3
f 99/77/3 90/76/3 89/78/3
f 100/79/3 89/78/3 88/80/3
f 102/81/3 101/82/3 88/80/3
f 102/81/3 87/83/3 86/84/3
f 103/85/3 86/84/3 85/86/3
f 104/87/3 85/86/3 118/88/3
f 89/78/7 40/89/7 41/90/7
f 88/80/7 41/90/7 42/91/7
f 87/83/7 42/91/7 43/92/7
f 86/84/7 43/92/7 44/93/7
f 85/86/7 44/93/7 116/94/7
f 42/91/8 49/95/8 50/96/8
f 43/92/8 50/96/8 51/97/8
f 44/93/8 51/97/8 114/98/8
f 49/95/12 57/99/12 58/100/12
f 50/96/12 58/100/12 59/101/12
f 51/97/12 59/101/12 112/102/12
f 90/103/7 68/41/7 40/19/7
f 52/23/21 46/104/21 69/105/21
f 56/60/11 63/106/11 64/107/11
f 55/59/11 62/69/11 63/106/11
f 21/68/21 6/108/21 9/47/21
f 60/22/21 5/109/21 46/104/21
f 66/110/21 73/111/21 108/112/21
f 65/113/21 72/114/21 73/111/21
f 64/115/21 71/116/21 72/114/21
f 63/117/21 70/118/21 71/116/21
f 62/119/21 69/120/21 70/118/21
f 10/55/23 74/61/23 75/121/23
f 8/25/21 10/55/21 67/122/21
f 59/101/11 66/110/11 110/123/11
f 58/100/11 65/113/11 66/110/11
f 57/99/11 64/115/11 65/113/11
f 6/108/23 16/124/23 20/29/23
f 33/26/21 67/122/21 5/109/21
f 71/116/23 80/125/23 81/126/23
f 70/118/23 79/127/23 80/125/23
f 16/124/13 95/63/13 37/10/13
f 69/120/23 78/128/23 79/127/23
f 5/109/23 76/129/23 77/130/23
f 72/114/23 81/126/23 39/131/23
f 46/104/23 77/130/23 78/132/23
f 74/133/13 96/134/13 97/135/13
f 67/122/23 75/121/23 76/129/23
f 73/111/23 39/131/23 106/136/23
f 39/131/13 104/137/13 120/138/13
f 106/139/30 118/140/30 114/141/30
f 110/142/30 108/143/30 106/139/30
f 114/141/30 112/144/30 110/142/30
f 118/140/30 116/145/30 114/141/30
f 106/139/30 120/146/30 118/140/30
f 75/147/13 97/135/13 98/148/13
f 76/149/13 98/148/13 99/150/13
f 107/46/23 105/45/23 16/124/23
f 111/56/11 109/151/11 21/68/11
f 78/128/13 77/152/13 99/150/13
f 78/128/13 100/153/13 101/154/13
f 107/46/31 109/151/31 12/57/31
f 109/151/21 107/46/21 6/108/21
f 105/45/13 119/66/13 95/63/13
f 113/34/12 111/56/12 3/65/12
f 79/127/13 101/154/13 102/155/13
f 80/125/13 102/155/13 103/156/13
f 81/126/13 103/156/13 104/137/13
f 48/15/12 57/67/12 49/16/12
f 100/79/3 88/80/3 101/82/3
f 31/58/11 8/25/11 11/24/11
f 115/35/8 113/34/8 13/64/8
f 102/81/3 88/80/3 87/83/3
f 20/29/13 38/30/13 14/48/13
f 102/81/3 86/84/3 103/85/3
f 92/1/7 61/40/7 91/39/7
f 103/85/3 85/86/3 104/87/3
f 99/77/3 89/78/3 100/79/3
f 104/87/3 118/88/3 120/157/3
f 17/33/21 10/55/21 8/25/21
f 90/76/7 40/89/7 89/78/7
f 89/78/7 41/90/7 88/80/7
f 40/19/8 48/15/8 41/14/8
f 92/1/1 83/3/1 82/50/1
f 2/54/23 74/61/23 10/55/23
f 88/80/7 42/91/7 87/83/7
f 87/83/7 43/92/7 86/84/7
f 86/84/7 44/93/7 85/86/7
f 36/4/2 84/6/2 34/13/2
f 35/11/6 83/3/6 93/2/6
f 85/86/7 116/94/7 118/88/7
f 3/65/11 23/32/11 32/31/11
f 23/32/21 2/54/21 17/33/21
f 9/47/23 14/48/23 2/54/23
f 25/38/15 26/42/15 28/36/15
f 96/9/3 92/1/3 97/8/3
f 41/90/8 49/95/8 42/91/8
f 42/91/8 50/96/8 43/92/8
f 43/92/8 51/97/8 44/93/8
f 98/74/3 90/76/3 99/77/3
f 44/93/8 114/98/8 116/94/8
f 18/62/11 62/69/11 55/59/11
f 7/51/12 53/28/12 45/27/12
f 37/10/32 94/5/32 36/4/32
f 49/95/12 58/100/12 50/96/12
f 83/3/28 22/18/28 7/51/28
f 50/96/12 59/101/12 51/97/12
f 55/59/11 63/106/11 56/60/11
f 51/97/12 112/102/12 114/98/12
f 56/158/11 64/115/11 57/99/11
f 68/41/8 47/20/8 40/19/8
f 38/30/24 93/2/24 96/9/24
f 37/10/5 35/11/5 38/30/5
f 32/31/11 17/33/11 31/58/11
f 105/45/16 25/38/16 24/49/16
f 113/34/20 26/42/20 111/56/20
f 57/99/11 65/113/11 58/100/11
f 45/27/12 54/21/12 15/70/12
f 36/4/7 1/12/7 35/11/7
f 119/66/29 30/53/29 117/52/29
f 22/18/12 11/24/12 7/51/12
f 98/7/3 92/1/3 91/39/3
f 95/63/3 119/66/3 117/52/3
f 84/6/33 19/17/33 34/13/33
f 82/50/8 7/51/8 45/27/8
f 47/20/12 56/60/12 48/15/12
f 58/100/11 66/110/11 59/101/11
f 117/52/19 28/36/19 115/35/19
f 91/39/7 68/41/7 90/103/7
f 119/159/25 24/160/25 29/161/25
f 14/48/13 96/9/13 74/61/13
f 111/56/22 12/57/22 109/151/22
f 53/28/11 60/22/11 54/21/11
f 113/34/14 28/36/14 27/43/14
f 11/24/11 33/26/11 53/28/11
f 4/44/12 55/59/12 47/20/12
f 82/50/8 15/70/8 61/40/8
f 13/64/12 32/31/12 19/17/12
f 34/13/9 22/18/9 1/12/9
f 19/17/12 31/58/12 22/18/12
f 117/52/34 115/35/34 84/6/34
f 15/70/12 18/62/12 4/44/12
f 61/40/8 4/44/8 68/41/8
f 54/21/11 52/23/11 18/62/11
f 63/117/21 71/116/21 64/115/21
f 71/116/23 81/126/23 72/114/23
f 70/118/23 80/125/23 71/116/23
f 69/120/23 79/127/23 70/118/23
f 8/25/21 67/122/21 33/26/21
f 5/109/23 77/130/23 46/104/23
f 72/114/23 39/131/23 73/111/23
f 21/68/21 9/47/21 23/32/21
f 73/111/23 106/136/23 108/112/23
f 46/104/23 78/132/23 69/105/23
f 66/110/21 108/112/21 110/123/21
f 33/26/21 5/109/21 60/22/21
f 74/133/13 97/135/13 75/147/13
f 75/147/13 98/148/13 76/149/13
f 76/149/13 99/150/13 77/152/13
f 65/113/21 73/111/21 66/110/21
f 64/115/21 72/114/21 65/113/21
f 113/34/12 3/65/12 13/64/12
f 67/122/23 76/129/23 5/109/23
f 109/151/21 6/108/21 21/68/21
f 115/35/35 13/64/35 84/6/35
f 78/128/13 99/150/13 100/153/13
f 78/128/13 101/154/13 79/127/13
f 6/108/23 20/29/23 9/47/23
f 79/127/13 102/155/13 80/125/13
f 62/119/21 70/118/21 63/117/21
f 59/101/11 110/123/11 112/102/11
f 107/46/31 12/57/31 25/38/31
f 10/55/23 75/121/23 67/122/23
f 107/46/23 16/124/23 6/108/23
f 60/22/21 46/104/21 52/23/21
f 111/56/11 21/68/11 3/65/11
f 80/125/13 103/156/13 81/126/13
f 81/126/13 104/137/13 39/131/13
f 39/131/13 120/138/13 106/136/13
f 52/23/21 69/105/21 62/69/21
f 16/124/13 37/10/13 20/29/13
f 114/141/30 110/142/30 106/139/30
f 105/45/13 95/63/13 16/124/13
f 117/52/34 84/6/34 94/5/34
f 95/63/36 117/52/36 94/5/36
