# Blender v2.80 (sub 74) OBJ File: ''
# www.blender.org
mtllib bottone.mtl
o Cube.001_Cube.012
v -0.383449 0.000508 -0.302477
v -0.395932 0.000771 -0.102073
v -0.378172 0.000034 0.100266
v -0.381192 0.000404 0.303433
v 0.406647 0.003098 0.311084
v 0.412077 0.003434 0.106671
v 0.406717 0.002596 -0.103092
v 0.402755 0.002376 -0.306884
v 0.332604 0.130620 0.265944
v 0.327497 0.127558 0.088084
v 0.334265 0.130013 -0.086239
v 0.323753 0.127236 -0.259005
v 0.375000 -0.125000 -0.300000
v 0.375000 -0.125000 -0.100000
v 0.375051 -0.124995 0.100023
v 0.377632 -0.124748 0.301322
v -0.324524 0.126793 -0.258689
v -0.346983 0.136804 -0.096158
v -0.352433 0.137569 0.084880
v -0.333407 0.131051 0.261149
v -0.375000 -0.125000 0.300000
v -0.375000 -0.125000 0.100000
v -0.375000 -0.125000 -0.100000
v -0.375000 -0.125000 -0.300000
v 0.382765 0.001422 0.507266
v 0.384132 0.000975 -0.503404
v -0.379330 0.000772 -0.504180
v -0.376628 0.000244 0.501734
v 0.375000 -0.125000 -0.500000
v 0.376939 -0.124811 0.501001
v -0.375000 -0.125000 -0.500000
v -0.375001 -0.125000 0.500001
vt 0.500000 0.550000
vt 0.500000 0.200000
vt 0.625000 0.200000
vt 0.500000 0.250000
vt 0.500000 0.750000
vt 0.500000 0.700000
vt 0.500000 0.050000
vt 0.625000 0.700000
vt 0.500000 0.150000
vt 0.625000 0.150000
vt 0.625000 0.100000
vt 0.625000 0.050000
vt 0.500000 0.100000
vt 0.500000 0.650000
vt 0.625000 0.650000
vt 0.625000 0.600000
vt 0.625000 0.550000
vt 0.500000 0.600000
vt 0.375000 0.650000
vt 0.375000 0.700000
vt 0.125000 0.700000
vt 0.375000 0.600000
vt 0.125000 0.650000
vt 0.375000 0.550000
vt 0.125000 0.600000
vt 0.375000 0.500000
vt 0.125000 0.550000
vt 0.875000 0.650000
vt 0.875000 0.700000
vt 0.875000 0.600000
vt 0.875000 0.550000
vt 0.500000 0.500000
vt 0.375000 0.200000
vt 0.375000 0.150000
vt 0.375000 0.100000
vt 0.500000 0.000000
vt 0.375000 0.050000
vt 0.375000 0.250000
vt 0.375000 0.750000
vt 0.500000 1.000000
vt 0.375000 1.000000
vt 0.125000 0.750000
vt 0.125000 0.500000
vt 0.375000 0.000000
vn -0.0061 0.3301 -0.9439
vn -0.0024 1.0000 0.0013
vn -0.0035 1.0000 0.0081
vn -0.0103 0.3284 0.9445
vn -0.9283 0.3405 -0.1493
vn -0.9401 0.3396 -0.0297
vn -0.9744 0.1949 0.1124
vn 0.8282 0.5594 -0.0334
vn 0.8229 0.5667 0.0399
vn 0.8642 0.4994 -0.0606
vn 0.0003 -1.0000 0.0012
vn 0.0000 -1.0000 0.0000
vn 0.0004 0.9993 0.0369
vn 0.0147 0.9999 -0.0038
vn 0.0108 0.9981 -0.0600
vn 0.9745 -0.2231 0.0255
vn 0.9609 -0.2758 -0.0235
vn 0.9702 -0.2416 -0.0186
vn 0.9720 -0.2167 -0.0906
vn -0.9957 -0.0683 -0.0619
vn -0.9830 -0.1622 0.0857
vn -0.9996 -0.0253 -0.0148
vn -0.9985 -0.0499 0.0229
vn -0.9992 -0.0351 -0.0204
vn 0.0010 -0.0271 -0.9996
vn 0.9914 -0.0517 0.1202
vn -0.0073 -0.0139 0.9999
vn 0.0003 -1.0000 -0.0003
vn -0.0007 0.3576 -0.9339
vn -0.0003 1.0000 -0.0071
vn -0.0016 1.0000 0.0008
vn -0.0066 0.3101 0.9507
vn -0.8971 0.4382 -0.0565
vn -0.9775 0.1926 0.0865
vn -0.9406 0.3393 -0.0146
vn 0.8609 0.5082 0.0237
vn 0.8677 0.4966 -0.0242
vn 0.8420 0.5392 -0.0169
vn 0.0148 0.9997 -0.0176
vn 0.0098 0.9998 0.0145
vn -0.0007 0.9999 -0.0160
vn 0.9610 -0.2764 -0.0120
vn 0.9705 -0.2412 -0.0002
vn 0.9771 -0.2129 0.0000
vn 0.9974 -0.0723 0.0000
vn -0.9864 -0.1642 0.0000
vn -0.9997 -0.0254 0.0000
vn -0.9988 -0.0493 0.0000
vn -0.9999 -0.0130 -0.0000
vn -0.9977 -0.0672 0.0000
vn 0.0000 -0.0332 -0.9994
vn 0.9751 -0.2216 0.0033
vn -0.0013 -0.0495 0.9988
vn 0.0003 -1.0000 0.0000
usemtl None
s off
f 8/1/1 1/2/1 17/3/1
f 27/4/2 1/2/2 8/1/2
f 25/5/3 5/6/3 4/7/3
f 4/7/4 5/6/4 9/8/4
f 2/9/5 18/10/5 17/3/5
f 19/11/6 18/10/6 2/9/6
f 20/12/7 19/11/7 3/13/7
f 6/14/8 10/15/8 9/8/8
f 11/16/9 10/15/9 6/14/9
f 12/17/10 11/16/10 7/18/10
f 15/19/11 16/20/11 21/21/11
f 14/22/12 15/19/12 22/23/12
f 13/24/12 14/22/12 23/25/12
f 29/26/12 13/24/12 24/27/12
f 19/28/13 20/29/13 9/8/13
f 18/30/14 19/28/14 10/15/14
f 17/31/15 18/30/15 11/16/15
f 6/14/16 5/6/16 16/20/16
f 7/18/17 6/14/17 15/19/17
f 8/1/18 7/18/18 14/22/18
f 26/32/19 8/1/19 13/24/19
f 2/9/20 1/2/20 24/33/20
f 3/13/21 2/9/21 23/34/21
f 4/7/22 3/13/22 22/35/22
f 28/36/23 4/7/23 21/37/23
f 1/2/24 27/4/24 31/38/24
f 27/4/25 26/32/25 29/26/25
f 5/6/26 25/5/26 30/39/26
f 25/5/27 28/40/27 32/41/27
f 16/20/28 30/39/28 32/42/28
f 8/1/29 17/3/29 12/17/29
f 27/4/30 8/1/30 26/32/30
f 25/5/31 4/7/31 28/36/31
f 4/7/32 9/8/32 20/12/32
f 2/9/33 17/3/33 1/2/33
f 19/11/34 2/9/34 3/13/34
f 20/12/35 3/13/35 4/7/35
f 6/14/36 9/8/36 5/6/36
f 11/16/37 6/14/37 7/18/37
f 12/17/38 7/18/38 8/1/38
f 15/19/12 21/21/12 22/23/12
f 14/22/12 22/23/12 23/25/12
f 13/24/12 23/25/12 24/27/12
f 29/26/12 24/27/12 31/43/12
f 19/28/39 9/8/39 10/15/39
f 18/30/40 10/15/40 11/16/40
f 17/31/41 11/16/41 12/17/41
f 6/14/42 16/20/42 15/19/42
f 7/18/43 15/19/43 14/22/43
f 8/1/44 14/22/44 13/24/44
f 26/32/45 13/24/45 29/26/45
f 2/9/46 24/33/46 23/34/46
f 3/13/47 23/34/47 22/35/47
f 4/7/48 22/35/48 21/37/48
f 28/36/49 21/37/49 32/44/49
f 1/2/50 31/38/50 24/33/50
f 27/4/51 29/26/51 31/38/51
f 5/6/52 30/39/52 16/20/52
f 25/5/53 32/41/53 30/39/53
f 16/20/54 32/42/54 21/21/54
