# Blender v2.80 (sub 74) OBJ File: 'piattaforma.blend'
# www.blender.org
mtllib piattaforma.mtl
o Cube_Cube.002
v -0.506052 -0.000000 -1.166667
v -0.556967 -0.000000 -0.833333
v -0.541528 -0.000000 -0.500000
v -0.500000 0.000000 -0.166667
v -0.500000 0.000000 0.166667
v -0.500038 0.000000 0.500007
v -0.521763 0.000000 0.837484
v -0.519885 0.000000 1.170459
v 0.519885 0.000000 1.170459
v 0.521763 0.000000 0.837484
v 0.500038 0.000000 0.500007
v 0.500000 0.000000 0.166667
v 0.500000 0.000000 -0.166667
v 0.541528 -0.000000 -0.500000
v 0.556967 -0.000000 -0.833333
v 0.506052 -0.000000 -1.166667
v 0.250000 0.000000 -1.500000
v 0.000000 0.000000 -1.500000
v -0.250000 0.000000 -1.500000
v -0.250000 0.000000 1.500000
v 0.000000 0.000000 1.500000
v 0.250000 0.000000 1.500000
v 0.500007 0.000000 1.500001
v 0.500000 0.000000 -1.500000
v -0.500000 0.000000 -1.500000
v -0.500007 0.000000 1.500001
v 0.249890 -0.051112 1.166826
v 0.249232 -0.073338 0.835098
v 0.249682 -0.059662 0.500730
v 0.249998 -0.050026 0.166666
v 0.249999 -0.050016 -0.166667
v 0.250000 -0.050000 -0.500000
v 0.249997 -0.050060 -0.833355
v 0.248743 -0.073513 -1.175020
v 0.004075 -0.080601 1.172115
v 0.000827 -0.056214 0.834440
v -0.000085 -0.051456 0.499945
v -0.004492 -0.087345 0.166389
v -0.004292 -0.083911 -0.166814
v -0.000049 -0.050831 -0.500032
v 0.000000 -0.050000 -0.833333
v -0.000025 -0.050473 -1.166835
v -0.249890 -0.051112 1.166826
v -0.249232 -0.073338 0.835098
v -0.249682 -0.059662 0.500730
v -0.249998 -0.050026 0.166666
v -0.249999 -0.050016 -0.166667
v -0.250000 -0.050000 -0.500000
v -0.249997 -0.050060 -0.833355
v -0.248743 -0.073513 -1.175020
v -0.262664 0.056986 1.171288
v -0.250208 0.050379 0.833427
v -0.250709 0.051549 0.500061
v -0.257383 0.071852 0.166833
v -0.250388 0.051161 -0.166658
v -0.250000 0.050054 -0.500000
v -0.251367 0.056553 -0.834699
v -0.257372 0.058959 -1.181942
v -0.000000 0.065621 1.156319
v -0.000000 0.059158 0.834702
v 0.000000 0.050000 0.500000
v 0.000000 0.050002 0.166667
v -0.000000 0.073446 -0.174579
v -0.000000 0.087089 -0.507913
v 0.000000 0.050379 -0.833333
v 0.000000 0.050000 -1.166667
v 0.262664 0.056986 1.171288
v 0.250208 0.050379 0.833427
v 0.250709 0.051549 0.500061
v 0.257383 0.071852 0.166833
v 0.250388 0.051161 -0.166658
v 0.250000 0.050054 -0.500000
v 0.251367 0.056553 -0.834699
v 0.257372 0.058959 -1.181942
v 0.500071 0.050072 1.166669
v 0.500862 0.050889 0.833330
v 0.500018 0.050025 0.500003
v 0.500040 0.050118 0.166668
v 0.500000 0.050000 -0.166667
v 0.500023 0.050015 -0.500004
v 0.531139 0.070609 -0.838769
v 0.530056 0.071974 -1.198105
v 0.500000 -0.050000 -1.166667
v 0.503247 -0.053247 -0.833333
v 0.534806 -0.084806 -0.500000
v 0.526647 -0.076647 -0.166667
v 0.500038 -0.050038 0.166667
v 0.527672 -0.077672 0.500000
v 0.534552 -0.084552 0.833333
v 0.502659 -0.052659 1.166667
v -0.530056 0.071974 -1.198105
v -0.531139 0.070609 -0.838769
v -0.500023 0.050015 -0.500004
v -0.500000 0.050000 -0.166667
v -0.500040 0.050118 0.166668
v -0.500018 0.050025 0.500003
v -0.500862 0.050889 0.833330
v -0.500071 0.050072 1.166669
v -0.502659 -0.052659 1.166667
v -0.534552 -0.084552 0.833333
v -0.527672 -0.077672 0.500000
v -0.500038 -0.050038 0.166667
v -0.526647 -0.076647 -0.166667
v -0.534806 -0.084806 -0.500000
v -0.503247 -0.053247 -0.833333
v -0.500000 -0.050000 -1.166667
v -0.250095 0.050020 1.499979
v -0.000000 0.050037 1.500046
v 0.250095 0.050043 1.499956
v 0.250000 -0.050000 1.500000
v 0.000013 -0.050004 1.499971
v -0.250000 -0.050000 1.500000
v 0.256424 0.049973 -1.500010
v 0.000000 0.050000 -1.500000
v -0.256424 0.050005 -1.500023
v -0.247640 -0.090959 -1.500066
v -0.000238 -0.054676 -1.500032
v 0.247640 -0.090959 -1.500066
v 0.501357 0.050022 -1.500007
v 0.500000 -0.050000 -1.500000
v 0.500000 0.050000 1.500000
v 0.500000 -0.050000 1.500000
v -0.501357 0.050038 -1.499991
v -0.500000 -0.050000 -1.500000
v -0.500000 0.050000 1.500000
v -0.500000 -0.050000 1.500000
vt 0.500000 0.222222
vt 0.500000 0.250000
vt 0.375000 0.250000
vt 0.500000 0.437500
vt 0.500000 0.500000
vt 0.375000 0.500000
vt 0.500000 0.722222
vt 0.500000 0.750000
vt 0.375000 0.750000
vt 0.500000 0.937500
vt 0.500000 1.000000
vt 0.375000 1.000000
vt 0.500000 0.812500
vt 0.375000 0.812500
vt 0.500000 0.875000
vt 0.375000 0.875000
vt 0.375000 0.937500
vt 0.500000 0.312500
vt 0.375000 0.312500
vt 0.500000 0.375000
vt 0.375000 0.375000
vt 0.375000 0.437500
vt 0.500000 0.527778
vt 0.375000 0.527778
vt 0.500000 0.555556
vt 0.375000 0.555556
vt 0.500000 0.583333
vt 0.375000 0.583333
vt 0.500000 0.611111
vt 0.375000 0.611111
vt 0.500000 0.638889
vt 0.375000 0.638889
vt 0.500000 0.666667
vt 0.375000 0.666667
vt 0.500000 0.694444
vt 0.375000 0.694444
vt 0.375000 0.722222
vt 0.500000 0.000000
vt 0.500000 0.027778
vt 0.375000 0.027778
vt 0.500000 0.055556
vt 0.375000 0.055556
vt 0.500000 0.083333
vt 0.375000 0.083333
vt 0.500000 0.111111
vt 0.375000 0.111111
vt 0.500000 0.138889
vt 0.375000 0.138889
vt 0.500000 0.166667
vt 0.375000 0.166667
vt 0.500000 0.194444
vt 0.375000 0.194444
vt 0.375000 0.222222
vt 0.625000 0.194444
vt 0.625000 0.222222
vt 0.625000 0.166667
vt 0.625000 0.138889
vt 0.625000 0.111111
vt 0.625000 0.083333
vt 0.625000 0.055556
vt 0.625000 0.027778
vt 0.625000 0.000000
vt 0.625000 0.694444
vt 0.625000 0.722222
vt 0.625000 0.666667
vt 0.625000 0.638889
vt 0.625000 0.611111
vt 0.625000 0.583333
vt 0.625000 0.555556
vt 0.625000 0.527778
vt 0.625000 0.500000
vt 0.312500 0.722222
vt 0.312500 0.694444
vt 0.312500 0.666667
vt 0.312500 0.638889
vt 0.312500 0.611111
vt 0.312500 0.583333
vt 0.312500 0.555556
vt 0.312500 0.527778
vt 0.875000 0.694444
vt 0.875000 0.722222
vt 0.812500 0.722222
vt 0.875000 0.666667
vt 0.812500 0.694444
vt 0.875000 0.638889
vt 0.812500 0.666667
vt 0.875000 0.611111
vt 0.812500 0.638889
vt 0.875000 0.583333
vt 0.812500 0.611111
vt 0.875000 0.555556
vt 0.812500 0.583333
vt 0.875000 0.527778
vt 0.812500 0.555556
vt 0.875000 0.500000
vt 0.812500 0.527778
vt 0.687500 0.694444
vt 0.687500 0.722222
vt 0.687500 0.666667
vt 0.687500 0.638889
vt 0.687500 0.611111
vt 0.687500 0.583333
vt 0.687500 0.555556
vt 0.687500 0.527778
vt 0.687500 0.500000
vt 0.750000 0.694444
vt 0.750000 0.722222
vt 0.750000 0.666667
vt 0.750000 0.638889
vt 0.750000 0.611111
vt 0.750000 0.583333
vt 0.750000 0.555556
vt 0.750000 0.527778
vt 0.750000 0.500000
vt 0.812500 0.500000
vt 0.187500 0.694444
vt 0.187500 0.722222
vt 0.125000 0.722222
vt 0.187500 0.666667
vt 0.125000 0.694444
vt 0.187500 0.638889
vt 0.125000 0.666667
vt 0.187500 0.611111
vt 0.125000 0.638889
vt 0.187500 0.583333
vt 0.125000 0.611111
vt 0.187500 0.555556
vt 0.125000 0.583333
vt 0.187500 0.527778
vt 0.125000 0.555556
vt 0.187500 0.500000
vt 0.125000 0.527778
vt 0.250000 0.694444
vt 0.250000 0.722222
vt 0.250000 0.666667
vt 0.250000 0.638889
vt 0.250000 0.611111
vt 0.250000 0.583333
vt 0.250000 0.555556
vt 0.250000 0.527778
vt 0.250000 0.500000
vt 0.312500 0.500000
vt 0.625000 0.375000
vt 0.625000 0.437500
vt 0.625000 0.312500
vt 0.625000 0.250000
vt 0.625000 0.875000
vt 0.625000 0.937500
vt 0.625000 0.812500
vt 0.625000 0.750000
vt 0.312500 0.750000
vt 0.250000 0.750000
vt 0.187500 0.750000
vt 0.125000 0.750000
vt 0.812500 0.750000
vt 0.750000 0.750000
vt 0.687500 0.750000
vt 0.875000 0.750000
vt 0.625000 1.000000
vt 0.375000 0.000000
vt 0.125000 0.500000
vn -0.9998 0.0000 -0.0182
vn 0.0000 0.0000 -1.0000
vn 0.9982 -0.0001 0.0602
vn 0.0000 -0.0000 1.0000
vn 0.0000 -0.0006 1.0000
vn 0.0000 0.0007 -1.0000
vn 0.0000 0.0006 -1.0000
vn 0.9926 -0.1201 -0.0180
vn 0.6999 -0.7062 -0.1069
vn 0.9958 -0.0789 0.0461
vn 0.9381 0.3261 0.1169
vn 1.0000 0.0008 0.0000
vn 0.9421 0.3352 -0.0001
vn 0.9863 0.1523 -0.0635
vn 0.9503 -0.3112 0.0054
vn -0.9477 -0.3141 0.0572
vn -0.9888 0.1493 0.0056
vn -0.9404 0.3346 -0.0605
vn -1.0000 0.0008 -0.0001
vn -0.9445 0.3284 0.0000
vn -0.9893 -0.0784 0.1232
vn -0.7036 -0.7099 0.0326
vn -0.9815 -0.1188 -0.1499
vn -0.9481 -0.3180 -0.0041
vn -0.9311 0.3488 0.1067
vn -0.7695 0.6386 0.0001
vn -1.0000 0.0000 -0.0001
vn -1.0000 -0.0008 0.0001
vn -1.0000 0.0004 -0.0025
vn -0.9249 0.3801 0.0031
vn -0.9298 0.3680 0.0003
vn 0.9298 0.3681 0.0031
vn 0.9251 0.3797 -0.0033
vn 1.0000 0.0004 0.0001
vn 1.0000 -0.0008 -0.0001
vn 1.0000 0.0000 0.0001
vn 0.7650 0.6348 0.1089
vn 0.9392 0.3434 -0.0015
vn 0.9379 -0.3409 -0.0644
vn -0.0060 -0.9955 0.0947
vn -0.0394 -0.9990 -0.0198
vn -0.0647 -0.9949 -0.0771
vn -0.0000 -0.9968 0.0796
vn -0.0958 -0.9952 0.0220
vn -0.1209 -0.9893 -0.0822
vn -0.0126 -0.9999 -0.0096
vn 0.0932 -0.9956 0.0000
vn -0.0292 0.9996 0.0025
vn 0.0020 1.0000 -0.0026
vn -0.0061 1.0000 0.0003
vn -0.0892 0.9960 -0.0004
vn -0.0046 1.0000 0.0000
vn -0.0002 0.9982 0.0607
vn 0.0501 0.9987 0.0039
vn 0.0516 0.9964 -0.0675
vn 0.0287 0.9994 -0.0206
vn -0.0020 1.0000 0.0035
vn 0.0061 0.9981 0.0609
vn 0.0890 0.9940 -0.0635
vn 0.0046 1.0000 -0.0033
vn 0.0002 0.9998 0.0194
vn -0.0501 0.9987 0.0061
vn -0.0493 0.9984 -0.0281
vn 0.0340 0.9992 -0.0201
vn 0.0349 0.9990 -0.0273
vn -0.0062 1.0000 0.0000
vn -0.0844 0.9941 0.0683
vn 0.0873 0.9953 0.0407
vn 0.1491 0.9826 -0.1108
vn -0.0246 0.9997 -0.0011
vn -0.0348 0.9994 0.0000
vn -0.0340 0.9992 -0.0208
vn -0.0351 0.9994 0.0036
vn 0.0062 0.9981 0.0607
vn 0.0844 0.9946 -0.0599
vn -0.0888 0.9960 -0.0034
vn -0.1459 0.9891 0.0198
vn 0.0245 0.9997 0.0065
vn 0.0364 0.9989 -0.0280
vn 0.0061 -0.9977 0.0669
vn 0.0395 -0.9984 -0.0409
vn 0.0647 -0.9975 -0.0288
vn 0.0000 -1.0000 -0.0000
vn 0.0958 -0.9954 -0.0000
vn 0.1213 -0.9926 0.0002
vn 0.0126 -0.9976 0.0685
vn -0.0913 -0.9944 0.0531
vn -0.1136 -0.9910 -0.0705
vn 0.0683 -0.9976 -0.0144
vn 0.0330 -0.9938 0.1065
vn -0.1503 -0.9886 -0.0103
vn -0.1360 -0.9857 -0.0996
vn -0.0033 -1.0000 -0.0025
vn 0.0002 -1.0000 0.0014
vn 0.0918 -0.9957 0.0125
vn 0.1203 -0.9905 0.0661
vn -0.0686 -0.9968 -0.0409
vn -0.0327 -0.9990 -0.0288
vn 0.1451 -0.9894 -0.0000
vn 0.1321 -0.9912 -0.0000
vn 0.0033 -1.0000 0.0002
vn -0.0002 -0.9977 0.0685
vn -0.0903 -0.9945 0.0537
vn -0.0000 -0.0002 -1.0000
vn 0.0001 0.0000 -1.0000
vn -0.0001 -0.0005 -1.0000
vn -0.0003 0.0004 1.0000
vn 0.0004 -0.0009 1.0000
vn -0.0002 0.0009 1.0000
vn 0.0000 -1.0000 0.0033
vn -0.0000 -0.9957 0.0929
vn -0.0001 0.9998 0.0212
vn -0.0000 0.9990 0.0453
vn 0.0002 0.9998 0.0211
vn -0.0001 1.0000 0.0002
vn 0.0000 -1.0000 0.0080
vn 0.0001 0.0000 1.0000
vn 1.0000 0.0001 0.0002
vn 0.0000 -0.0001 -1.0000
vn -0.9953 -0.0270 -0.0927
vn -0.9928 -0.1202 0.0000
vn 0.0001 0.0007 -1.0000
vn 0.9502 -0.3115 0.0101
vn -0.0001 0.0000 1.0000
vn 0.0001 -0.0006 1.0000
vn -0.0003 0.0000 -1.0000
vn -0.0001 0.0006 -1.0000
vn 1.0000 0.0000 0.0000
vn 0.9927 -0.1201 -0.0108
vn 0.6977 -0.7039 -0.1327
vn 0.9965 -0.0790 0.0263
vn 0.9434 0.3280 0.0491
vn 0.9966 0.0008 -0.0826
vn 0.9421 0.3352 -0.0125
vn 0.9861 0.1452 0.0805
vn -1.0000 -0.0001 0.0080
vn -0.9409 -0.3165 0.1203
vn -0.9885 0.1504 -0.0173
vn -0.9410 0.3348 -0.0503
vn -0.9968 0.0008 0.0795
vn -0.9444 0.3283 0.0151
vn -0.9917 -0.0786 -0.1013
vn -0.7039 -0.7102 -0.0138
vn -0.9330 0.3303 -0.1425
vn -0.7691 0.6382 0.0356
vn -0.9923 -0.0000 0.1236
vn -1.0000 -0.0008 0.0000
vn -1.0000 0.0004 -0.0001
vn -0.9251 0.3751 -0.0596
vn -0.9297 0.3683 0.0052
vn -0.9982 0.0001 0.0602
vn 0.9249 0.3803 0.0052
vn 0.9979 0.0004 -0.0642
vn 0.7660 0.6357 0.0954
vn 0.9372 0.3461 0.0434
vn 0.9192 -0.3679 -0.1404
vn 0.9995 -0.0271 -0.0181
vn -0.0388 -0.9970 0.0669
vn -0.0647 -0.9971 -0.0409
vn -0.0000 -0.9996 -0.0288
vn -0.0958 -0.9954 -0.0000
vn -0.1213 -0.9926 -0.0000
vn -0.0126 -0.9999 0.0002
vn 0.0907 -0.9936 0.0679
vn 0.1600 -0.9857 0.0524
vn 0.0020 0.9998 -0.0195
vn -0.0061 1.0000 0.0035
vn -0.0891 0.9941 0.0624
vn -0.0046 0.9981 -0.0620
vn -0.0002 1.0000 -0.0033
vn 0.0499 0.9986 0.0192
vn 0.0473 0.9989 0.0061
vn 0.0001 0.9996 -0.0281
vn -0.0020 1.0000 0.0024
vn 0.0061 1.0000 -0.0026
vn 0.0892 0.9960 0.0003
vn 0.0046 1.0000 -0.0004
vn 0.0002 1.0000 0.0000
vn -0.0493 0.9972 0.0561
vn -0.0474 0.9989 0.0039
vn -0.0002 0.9974 -0.0725
vn 0.0350 0.9992 -0.0208
vn -0.0062 1.0000 0.0035
vn -0.0845 0.9947 0.0589
vn 0.0905 0.9939 -0.0636
vn 0.1466 0.9892 -0.0035
vn -0.0244 0.9995 0.0193
vn -0.0344 0.9994 0.0063
vn 0.0001 0.9996 -0.0282
vn -0.0350 0.9992 -0.0201
vn 0.0062 0.9996 -0.0274
vn 0.0846 0.9964 0.0000
vn -0.0863 0.9939 0.0683
vn -0.1452 0.9886 0.0405
vn 0.0250 0.9934 -0.1121
vn 0.0349 0.9994 -0.0011
vn 0.0000 1.0000 0.0000
vn 0.0385 -0.9951 0.0915
vn 0.0647 -0.9977 -0.0193
vn 0.0000 -0.9966 -0.0826
vn 0.0956 -0.9928 0.0716
vn 0.1213 -0.9924 0.0213
vn 0.0125 -0.9956 -0.0931
vn -0.0935 -0.9956 -0.0106
vn -0.1602 -0.9871 0.0000
vn 0.0683 -0.9954 0.0668
vn 0.0327 -0.9986 -0.0409
vn -0.1503 -0.9882 -0.0284
vn -0.1367 -0.9906 -0.0000
vn -0.0033 -1.0000 -0.0000
vn 0.0002 -1.0000 0.0002
vn 0.0898 -0.9936 0.0685
vn 0.1449 -0.9880 0.0535
vn -0.0684 -0.9951 -0.0712
vn -0.0328 -0.9994 -0.0141
vn 0.1442 -0.9841 0.1040
vn 0.1321 -0.9912 -0.0101
vn 0.0033 -0.9951 -0.0987
vn -0.0002 -1.0000 -0.0025
vn -0.0922 -0.9957 0.0014
vn -0.1448 -0.9894 0.0126
vn 0.0000 -0.0005 -1.0000
vn 0.0000 0.0002 -1.0000
vn 0.0000 -0.0009 1.0000
vn 0.0000 0.0009 1.0000
vn 0.1206 -0.9883 0.0937
vn -0.1154 -0.9933 0.0033
vn 0.0061 -0.9999 0.0079
vn -0.0302 0.9985 0.0453
vn 0.0316 0.9993 0.0223
vn 0.0291 0.9996 0.0002
vn -0.0295 0.9993 0.0223
vn -0.0061 -1.0000 0.0033
vn 0.0000 0.0004 1.0000
vn 0.9269 0.3710 0.0559
vn -0.9462 -0.3231 -0.0172
usemtl None
s off
f 1/1/1 25/2/1 124/3/1
f 17/4/2 24/5/2 120/6/2
f 9/7/3 23/8/3 122/9/3
f 20/10/4 26/11/4 126/12/4
f 23/8/4 22/13/4 110/14/4
f 22/13/5 21/15/5 111/16/5
f 21/15/4 20/10/4 112/17/4
f 25/2/6 19/18/6 116/19/6
f 19/18/7 18/20/7 117/21/7
f 18/20/6 17/4/6 118/22/6
f 24/5/8 16/23/8 83/24/8
f 16/23/9 15/25/9 84/26/9
f 15/25/10 14/27/10 85/28/10
f 14/27/11 13/29/11 86/30/11
f 13/29/12 12/31/12 87/32/12
f 12/31/13 11/33/13 88/34/13
f 11/33/14 10/35/14 89/36/14
f 10/35/15 9/7/15 90/37/15
f 26/38/16 8/39/16 99/40/16
f 8/39/17 7/41/17 100/42/17
f 7/41/18 6/43/18 101/44/18
f 6/43/19 5/45/19 102/46/19
f 5/45/20 4/47/20 103/48/20
f 4/47/21 3/49/21 104/50/21
f 3/49/22 2/51/22 105/52/22
f 2/51/23 1/1/23 106/53/23
f 92/54/24 91/55/24 1/1/24
f 93/56/25 92/54/25 2/51/25
f 94/57/26 93/56/26 3/49/26
f 95/58/27 94/57/27 4/47/27
f 96/59/28 95/58/28 5/45/28
f 97/60/29 96/59/29 6/43/29
f 98/61/30 97/60/30 7/41/30
f 125/62/31 98/61/31 8/39/31
f 76/63/32 75/64/32 9/7/32
f 77/65/33 76/63/33 10/35/33
f 78/66/34 77/65/34 11/33/34
f 79/67/35 78/66/35 12/31/35
f 80/68/36 79/67/36 13/29/36
f 81/69/37 80/68/37 14/27/37
f 82/70/38 81/69/38 15/25/38
f 119/71/39 82/70/39 16/23/39
f 89/36/40 90/37/40 27/72/40
f 88/34/41 89/36/41 28/73/41
f 87/32/42 88/34/42 29/74/42
f 86/30/43 87/32/43 30/75/43
f 85/28/44 86/30/44 31/76/44
f 84/26/45 85/28/45 32/77/45
f 83/24/46 84/26/46 33/78/46
f 120/6/47 83/24/47 34/79/47
f 97/80/48 98/81/48 51/82/48
f 96/83/49 97/80/49 52/84/49
f 95/85/50 96/83/50 53/86/50
f 94/87/51 95/85/51 54/88/51
f 93/89/52 94/87/52 55/90/52
f 92/91/53 93/89/53 56/92/53
f 91/93/54 92/91/54 57/94/54
f 123/95/55 91/93/55 58/96/55
f 68/97/56 67/98/56 75/64/56
f 69/99/57 68/97/57 76/63/57
f 70/100/58 69/99/58 77/65/58
f 71/101/59 70/100/59 78/66/59
f 72/102/60 71/101/60 79/67/60
f 73/103/61 72/102/61 80/68/61
f 74/104/62 73/103/62 81/69/62
f 113/105/63 74/104/63 82/70/63
f 60/106/64 59/107/64 67/98/64
f 61/108/65 60/106/65 68/97/65
f 62/109/66 61/108/66 69/99/66
f 63/110/67 62/109/67 70/100/67
f 64/111/68 63/110/68 71/101/68
f 65/112/69 64/111/69 72/102/69
f 66/113/70 65/112/70 73/103/70
f 114/114/71 66/113/71 74/104/71
f 52/84/72 51/82/72 59/107/72
f 53/86/73 52/84/73 60/106/73
f 54/88/74 53/86/74 61/108/74
f 55/90/75 54/88/75 62/109/75
f 56/92/76 55/90/76 63/110/76
f 57/94/77 56/92/77 64/111/77
f 58/96/78 57/94/78 65/112/78
f 115/115/79 58/96/79 66/113/79
f 44/116/80 43/117/80 99/118/80
f 45/119/81 44/116/81 100/120/81
f 46/121/82 45/119/82 101/122/82
f 47/123/83 46/121/83 102/124/83
f 48/125/84 47/123/84 103/126/84
f 49/127/85 48/125/85 104/128/85
f 50/129/86 49/127/86 105/130/86
f 116/131/87 50/129/87 106/132/87
f 36/133/88 35/134/88 43/117/88
f 37/135/89 36/133/89 44/116/89
f 38/136/90 37/135/90 45/119/90
f 39/137/91 38/136/91 46/121/91
f 40/138/92 39/137/92 47/123/92
f 41/139/93 40/138/93 48/125/93
f 42/140/94 41/139/94 49/127/94
f 117/141/95 42/140/95 50/129/95
f 28/73/96 27/72/96 35/134/96
f 29/74/97 28/73/97 36/133/97
f 30/75/98 29/74/98 37/135/98
f 31/76/99 30/75/99 38/136/99
f 32/77/100 31/76/100 39/137/100
f 33/78/101 32/77/101 40/138/101
f 34/79/102 33/78/102 41/139/102
f 118/142/103 34/79/103 42/140/103
f 114/143/104 113/144/104 17/4/104
f 115/145/105 114/143/105 18/20/105
f 123/146/106 115/145/106 19/18/106
f 108/147/107 107/148/107 20/10/107
f 109/149/108 108/147/108 21/15/108
f 121/150/109 109/149/109 22/13/109
f 27/72/110 110/151/110 111/152/110
f 35/134/111 111/152/111 112/153/111
f 43/117/110 112/153/110 126/154/110
f 51/82/112 107/155/112 108/156/112
f 59/107/113 108/156/113 109/157/113
f 67/98/114 109/157/114 121/150/114
f 98/81/115 125/158/115 107/155/115
f 90/37/116 122/9/116 110/151/116
f 107/148/117 125/159/117 26/11/117
f 75/64/118 121/150/118 23/8/118
f 113/144/119 119/71/119 24/5/119
f 91/55/120 123/146/120 25/2/120
f 1/1/121 124/3/121 106/53/121
f 17/4/122 120/6/122 118/22/122
f 9/7/123 122/9/123 90/37/123
f 20/10/4 126/12/4 112/17/4
f 23/8/4 110/14/4 122/9/4
f 22/13/124 111/16/124 110/14/124
f 21/15/125 112/17/125 111/16/125
f 25/2/126 116/19/126 124/3/126
f 19/18/6 117/21/6 116/19/6
f 18/20/127 118/22/127 117/21/127
f 24/5/128 83/24/128 120/6/128
f 16/23/129 84/26/129 83/24/129
f 15/25/130 85/28/130 84/26/130
f 14/27/131 86/30/131 85/28/131
f 13/29/132 87/32/132 86/30/132
f 12/31/133 88/34/133 87/32/133
f 11/33/134 89/36/134 88/34/134
f 10/35/135 90/37/135 89/36/135
f 26/38/136 99/40/136 126/160/136
f 8/39/137 100/42/137 99/40/137
f 7/41/138 101/44/138 100/42/138
f 6/43/139 102/46/139 101/44/139
f 5/45/140 103/48/140 102/46/140
f 4/47/141 104/50/141 103/48/141
f 3/49/142 105/52/142 104/50/142
f 2/51/143 106/53/143 105/52/143
f 92/54/144 1/1/144 2/51/144
f 93/56/145 2/51/145 3/49/145
f 94/57/146 3/49/146 4/47/146
f 95/58/147 4/47/147 5/45/147
f 96/59/148 5/45/148 6/43/148
f 97/60/149 6/43/149 7/41/149
f 98/61/150 7/41/150 8/39/150
f 125/62/151 8/39/151 26/38/151
f 76/63/152 9/7/152 10/35/152
f 77/65/153 10/35/153 11/33/153
f 78/66/35 11/33/35 12/31/35
f 79/67/128 12/31/128 13/29/128
f 80/68/154 13/29/154 14/27/154
f 81/69/155 14/27/155 15/25/155
f 82/70/156 15/25/156 16/23/156
f 119/71/157 16/23/157 24/5/157
f 89/36/158 27/72/158 28/73/158
f 88/34/159 28/73/159 29/74/159
f 87/32/160 29/74/160 30/75/160
f 86/30/161 30/75/161 31/76/161
f 85/28/162 31/76/162 32/77/162
f 84/26/163 32/77/163 33/78/163
f 83/24/164 33/78/164 34/79/164
f 120/6/165 34/79/165 118/142/165
f 97/80/166 51/82/166 52/84/166
f 96/83/167 52/84/167 53/86/167
f 95/85/168 53/86/168 54/88/168
f 94/87/169 54/88/169 55/90/169
f 93/89/170 55/90/170 56/92/170
f 92/91/171 56/92/171 57/94/171
f 91/93/172 57/94/172 58/96/172
f 123/95/173 58/96/173 115/115/173
f 68/97/174 75/64/174 76/63/174
f 69/99/175 76/63/175 77/65/175
f 70/100/176 77/65/176 78/66/176
f 71/101/177 78/66/177 79/67/177
f 72/102/178 79/67/178 80/68/178
f 73/103/179 80/68/179 81/69/179
f 74/104/180 81/69/180 82/70/180
f 113/105/181 82/70/181 119/71/181
f 60/106/182 67/98/182 68/97/182
f 61/108/183 68/97/183 69/99/183
f 62/109/184 69/99/184 70/100/184
f 63/110/185 70/100/185 71/101/185
f 64/111/186 71/101/186 72/102/186
f 65/112/187 72/102/187 73/103/187
f 66/113/188 73/103/188 74/104/188
f 114/114/189 74/104/189 113/105/189
f 52/84/190 59/107/190 60/106/190
f 53/86/191 60/106/191 61/108/191
f 54/88/192 61/108/192 62/109/192
f 55/90/193 62/109/193 63/110/193
f 56/92/194 63/110/194 64/111/194
f 57/94/195 64/111/195 65/112/195
f 58/96/196 65/112/196 66/113/196
f 115/115/197 66/113/197 114/114/197
f 44/116/198 99/118/198 100/120/198
f 45/119/199 100/120/199 101/122/199
f 46/121/200 101/122/200 102/124/200
f 47/123/201 102/124/201 103/126/201
f 48/125/202 103/126/202 104/128/202
f 49/127/203 104/128/203 105/130/203
f 50/129/204 105/130/204 106/132/204
f 116/131/205 106/132/205 124/161/205
f 36/133/206 43/117/206 44/116/206
f 37/135/207 44/116/207 45/119/207
f 38/136/208 45/119/208 46/121/208
f 39/137/209 46/121/209 47/123/209
f 40/138/210 47/123/210 48/125/210
f 41/139/211 48/125/211 49/127/211
f 42/140/212 49/127/212 50/129/212
f 117/141/213 50/129/213 116/131/213
f 28/73/214 35/134/214 36/133/214
f 29/74/215 36/133/215 37/135/215
f 30/75/216 37/135/216 38/136/216
f 31/76/217 38/136/217 39/137/217
f 32/77/218 39/137/218 40/138/218
f 33/78/219 40/138/219 41/139/219
f 34/79/220 41/139/220 42/140/220
f 118/142/221 42/140/221 117/141/221
f 114/143/2 17/4/2 18/20/2
f 115/145/222 18/20/222 19/18/222
f 123/146/223 19/18/223 25/2/223
f 108/147/224 20/10/224 21/15/224
f 109/149/225 21/15/225 22/13/225
f 121/150/4 22/13/4 23/8/4
f 27/72/226 111/152/226 35/134/226
f 35/134/227 112/153/227 43/117/227
f 43/117/228 126/154/228 99/118/228
f 51/82/229 108/156/229 59/107/229
f 59/107/230 109/157/230 67/98/230
f 67/98/231 121/150/231 75/64/231
f 98/81/232 107/155/232 51/82/232
f 90/37/233 110/151/233 27/72/233
f 107/148/234 26/11/234 20/10/234
f 75/64/235 23/8/235 9/7/235
f 113/144/104 24/5/104 17/4/104
f 91/55/236 25/2/236 1/1/236
